<svg width="116" height="117" viewBox="0 0 116 117" fill="none" xmlns="http://www.w3.org/2000/svg">
<path d="M93.3715 5.29251C103.507 12.1503 107.327 24.7451 111.068 36.3739C114.691 47.6387 118.066 59.5622 114.453 70.8303C110.881 81.9674 100.651 88.8728 91.7803 96.5207C82.3067 104.688 73.6521 115.113 61.2312 116.713C48.2992 118.379 35.5812 112.565 24.879 105.138C14.2435 97.7579 5.29179 87.6883 1.57182 75.3132C-2.03996 63.2979 1.20788 50.7401 4.92476 38.7567C8.59012 26.9394 12.6612 14.4587 22.701 7.19159C32.6164 0.0145485 45.6601 0.734586 57.9087 0.405437C70.137 0.0768365 83.2497 -1.55607 93.3715 5.29251Z" fill="white"/>
<path d="M72.5 50.75L69.0925 47.3184L53.1667 63.2442L46.9075 57.0092L43.5 60.4167L53.1667 70.0834L72.5 50.75ZM74.9167 36.25H64.815C63.8 33.4467 61.1417 31.4167 58 31.4167C54.8583 31.4167 52.2 33.4467 51.185 36.25H41.0833C40.745 36.25 40.4308 36.2742 40.1167 36.3467C39.347 36.5082 38.6281 36.8543 38.0219 37.3553C37.4157 37.8563 36.9403 38.4971 36.6367 39.2225C36.395 39.7784 36.25 40.4067 36.25 41.0834V74.9167C36.25 75.5692 36.395 76.2217 36.6367 76.8017C36.8783 77.3817 37.2408 77.8892 37.6758 78.3484C38.3283 79.0009 39.1742 79.4842 40.1167 79.6775C40.4308 79.7258 40.745 79.75 41.0833 79.75H74.9167C77.575 79.75 79.75 77.575 79.75 74.9167V41.0834C79.75 38.425 77.575 36.25 74.9167 36.25ZM58 35.6459C58.9908 35.6459 59.8125 36.4675 59.8125 37.4584C59.8125 38.4492 58.9908 39.2709 58 39.2709C57.0092 39.2709 56.1875 38.4492 56.1875 37.4584C56.1875 36.4675 57.0092 35.6459 58 35.6459ZM74.9167 74.9167H41.0833V41.0834H74.9167V74.9167Z" fill="black"/>
</svg>
