<svg width="130" height="121" viewBox="0 0 130 121" fill="none" xmlns="http://www.w3.org/2000/svg">
<path d="M73.9938 0.550156C86.0187 2.97913 93.6675 13.8079 102.715 22.0933C112.689 31.2281 126.669 38.0676 129.421 51.3104C132.22 64.7796 124.365 78.0769 116.724 89.5168C109.591 100.196 99.5782 108.353 87.8412 113.564C76.2913 118.693 63.3201 122.199 51.2029 118.611C39.5858 115.171 33.2703 103.602 24.8328 94.9069C16.1868 85.9972 4.39358 79.2353 1.31988 67.2066C-1.92148 54.5218 0.981287 40.4743 8.11901 29.4987C15.0042 18.9114 27.4628 14.309 39.0248 9.22813C50.2957 4.27516 61.9264 -1.88743 73.9938 0.550156Z" fill="#FAF8FE"/>
<path d="M27.3398 42.6523C27.3398 42.2461 27.457 41.957 27.6914 41.7852C27.9258 41.6133 28.3125 41.5273 28.8516 41.5273C29.0391 41.5273 29.2031 41.5469 29.3438 41.5859C29.4844 41.625 29.6016 41.6914 29.6953 41.7852C29.7891 41.8711 29.8633 41.9922 29.918 42.1484C29.9805 42.2969 30.0312 42.4883 30.0703 42.7227C30.1719 43.418 30.2734 44.1484 30.375 44.9141C30.4844 45.6719 30.5859 46.4297 30.6797 47.1875C30.7812 47.9375 30.875 48.6719 30.9609 49.3906C31.0469 50.1016 31.1211 50.7656 31.1836 51.3828C31.2539 51.9922 31.3047 52.5352 31.3359 53.0117C31.375 53.4805 31.3945 53.8516 31.3945 54.125C31.3945 54.4062 31.3672 54.6445 31.3125 54.8398C31.2656 55.0352 31.1797 55.1914 31.0547 55.3086C30.9375 55.4258 30.7812 55.5117 30.5859 55.5664C30.3984 55.6133 30.1641 55.6367 29.8828 55.6367C29.6094 55.6367 29.3906 55.5664 29.2266 55.4258C29.0703 55.2852 28.9922 55.0703 28.9922 54.7812C28.9922 54.4844 28.9688 54.0898 28.9219 53.5977C28.875 53.0977 28.8125 52.543 28.7344 51.9336C28.6562 51.3242 28.5664 50.6758 28.4648 49.9883C28.3711 49.3008 28.2695 48.6211 28.1602 47.9492C28.0586 47.2773 27.957 46.6328 27.8555 46.0156C27.7617 45.3906 27.6758 44.8398 27.5977 44.3633C27.5195 43.8789 27.457 43.4844 27.4102 43.1797C27.3633 42.8672 27.3398 42.6914 27.3398 42.6523Z" fill="black"/>
<path d="M35.0273 44.0469C34.8008 44.0469 34.5859 44.0156 34.3828 43.9531C34.1875 43.8828 34.0156 43.7891 33.8672 43.6719C33.7266 43.5469 33.6133 43.4023 33.5273 43.2383C33.4414 43.0742 33.3984 42.8945 33.3984 42.6992C33.3984 42.3711 33.5273 42.1055 33.7852 41.9023C34.0508 41.6992 34.4023 41.5977 34.8398 41.5977C35.043 41.5977 35.2383 41.6367 35.4258 41.7148C35.6133 41.7852 35.7773 41.8828 35.918 42.0078C36.0664 42.1328 36.1836 42.2812 36.2695 42.4531C36.3555 42.6172 36.3984 42.7891 36.3984 42.9688C36.3984 43.3047 36.2734 43.5703 36.0234 43.7656C35.7812 43.9531 35.4492 44.0469 35.0273 44.0469ZM33.4219 47.6211C33.4219 47.3477 33.5391 47.125 33.7734 46.9531C34.0156 46.7734 34.332 46.6836 34.7227 46.6836C35.4258 46.6836 35.8008 46.9258 35.8477 47.4102C35.8789 47.7461 35.9102 48.125 35.9414 48.5469C35.9805 48.9688 36.0156 49.418 36.0469 49.8945C36.0859 50.3633 36.1172 50.8516 36.1406 51.3594C36.1719 51.8594 36.1992 52.3555 36.2227 52.8477C36.2461 53.332 36.2656 53.8008 36.2812 54.2539C36.2969 54.707 36.3047 55.1211 36.3047 55.4961C36.3047 55.8867 36.1641 56.1797 35.8828 56.375C35.6094 56.5703 35.207 56.668 34.6758 56.668C34.4336 56.668 34.2422 56.6094 34.1016 56.4922C33.9688 56.3828 33.9023 56.2188 33.9023 56C33.9023 54.9219 33.875 53.9141 33.8203 52.9766C33.7734 52.0312 33.7188 51.1914 33.6562 50.457C33.6016 49.7227 33.5469 49.1133 33.4922 48.6289C33.4453 48.1367 33.4219 47.8008 33.4219 47.6211Z" fill="black"/>
<path d="M39.5156 56.5039C39.4609 55.4648 39.3711 54.5078 39.2461 53.6328C39.1289 52.75 39.0039 51.9805 38.8711 51.3242C38.7461 50.668 38.6328 50.1367 38.5312 49.7305C38.4375 49.3242 38.3906 49.0703 38.3906 48.9688C38.3906 48.8203 38.4453 48.6758 38.5547 48.5352C38.6719 48.3945 38.8164 48.2734 38.9883 48.1719C39.1602 48.0625 39.3438 47.9766 39.5391 47.9141C39.7422 47.8516 39.9258 47.8203 40.0898 47.8203C40.2227 47.8203 40.3359 47.8438 40.4297 47.8906C40.5312 47.9375 40.6016 48.0156 40.6406 48.125C40.6797 48.2578 40.7148 48.3984 40.7461 48.5469C40.7852 48.6875 40.8242 48.8594 40.8633 49.0625C40.9102 49.3516 40.9727 49.4961 41.0508 49.4961C41.1367 49.4961 41.2344 49.3672 41.3438 49.1094C41.5 48.75 41.668 48.4531 41.8477 48.2188C42.0273 47.9844 42.2188 47.8008 42.4219 47.668C42.6328 47.5273 42.8477 47.4297 43.0664 47.375C43.293 47.3203 43.5273 47.293 43.7695 47.293C44.5039 47.293 45.125 47.582 45.6328 48.1602C46.1484 48.7383 46.5508 49.5742 46.8398 50.668C46.8789 50.793 46.9141 50.875 46.9453 50.9141C46.9766 50.9453 47.0117 50.9609 47.0508 50.9609C47.0898 50.9609 47.1289 50.9453 47.168 50.9141C47.2148 50.875 47.2578 50.8008 47.2969 50.6914C47.4844 50.1836 47.7031 49.7539 47.9531 49.4023C48.2031 49.043 48.4609 48.7539 48.7266 48.5352C49 48.3086 49.2773 48.1445 49.5586 48.043C49.8398 47.9414 50.1094 47.8906 50.3672 47.8906C50.8438 47.8906 51.2734 48.0664 51.6562 48.418C52.0469 48.7617 52.3906 49.2969 52.6875 50.0234C52.9922 50.7422 53.2539 51.6562 53.4727 52.7656C53.6992 53.8672 53.8867 55.1758 54.0352 56.6914C54.0352 57.1133 53.9062 57.4062 53.6484 57.5703C53.3906 57.7422 53.0391 57.8281 52.5938 57.8281C52.3047 57.8281 52.0781 57.7656 51.9141 57.6406C51.75 57.5156 51.6562 57.3516 51.6328 57.1484C51.5312 56.0625 51.418 55.0977 51.293 54.2539C51.1758 53.4023 51.0469 52.6875 50.9062 52.1094C50.7656 51.5234 50.6094 51.0781 50.4375 50.7734C50.2734 50.4688 50.0898 50.3164 49.8867 50.3164C49.7852 50.3164 49.6562 50.3906 49.5 50.5391C49.3516 50.6875 49.1914 50.9609 49.0195 51.3594C48.8477 51.75 48.668 52.2891 48.4805 52.9766C48.293 53.6562 48.1133 54.5273 47.9414 55.5898C47.8945 55.8867 47.75 56.1133 47.5078 56.2695C47.2734 56.4258 46.9844 56.5039 46.6406 56.5039C46.2422 56.5039 45.9648 56.4414 45.8086 56.3164C45.6602 56.1914 45.5781 55.9805 45.5625 55.6836C45.5312 55.168 45.4766 54.6562 45.3984 54.1484C45.3281 53.6328 45.2383 53.1445 45.1289 52.6836C45.0195 52.2148 44.8984 51.7852 44.7656 51.3945C44.6328 50.9961 44.4922 50.6523 44.3438 50.3633C44.1953 50.0664 44.043 49.8359 43.8867 49.6719C43.7305 49.5078 43.5781 49.4258 43.4297 49.4258C43.2344 49.4258 43.043 49.5625 42.8555 49.8359C42.6758 50.1094 42.5117 50.4961 42.3633 50.9961C42.2227 51.4961 42.1094 52.0977 42.0234 52.8008C41.9375 53.5039 41.8945 54.2891 41.8945 55.1562C41.8945 55.3047 41.8984 55.4531 41.9062 55.6016C41.9141 55.7422 41.918 55.8906 41.918 56.0469C41.918 56.2812 41.8789 56.4727 41.8008 56.6211C41.7305 56.7695 41.625 56.8867 41.4844 56.9727C41.3516 57.0586 41.1953 57.1172 41.0156 57.1484C40.8359 57.1797 40.6406 57.1953 40.4297 57.1953C40.2344 57.1953 40.0781 57.1797 39.9609 57.1484C39.8438 57.125 39.7539 57.0859 39.6914 57.0312C39.6289 56.9766 39.5859 56.9023 39.5625 56.8086C39.5391 56.7227 39.5234 56.6211 39.5156 56.5039Z" fill="black"/>
<path d="M28.3008 70.1094C28.1992 69.9453 28.1328 69.8086 28.1016 69.6992C28.0703 69.582 28.0547 69.4883 28.0547 69.418C28.0547 69.2852 28.1133 69.1484 28.2305 69.0078C28.3477 68.8672 28.4922 68.7422 28.6641 68.6328C28.8359 68.5156 29.0195 68.4219 29.2148 68.3516C29.4102 68.2734 29.582 68.2344 29.7305 68.2344C29.8164 68.2344 29.9062 68.2695 30 68.3398C30.1016 68.4023 30.2383 68.5703 30.4102 68.8438C30.6836 69.2891 30.9688 69.75 31.2656 70.2266C31.5703 70.7031 31.8906 71.1836 32.2266 71.668C32.3594 71.8477 32.4961 71.9375 32.6367 71.9375C32.793 71.9375 32.9375 71.8555 33.0703 71.6914C33.6016 71.1055 34.1367 70.5625 34.6758 70.0625C35.2148 69.5625 35.7539 69.1562 36.293 68.8438C36.6211 68.6484 36.8906 68.5195 37.1016 68.457C37.3125 68.3945 37.4648 68.3633 37.5586 68.3633C37.707 68.3633 37.8594 68.4102 38.0156 68.5039C38.1719 68.5977 38.3125 68.7148 38.4375 68.8555C38.5703 68.9883 38.6758 69.1289 38.7539 69.2773C38.8398 69.4258 38.8828 69.5586 38.8828 69.6758C38.8828 69.8555 38.7695 70.0312 38.543 70.2031C38.3242 70.375 38.0039 70.5859 37.582 70.8359C36.9961 71.1953 36.4375 71.6172 35.9062 72.1016C35.3828 72.5859 34.8789 73.0977 34.3945 73.6367C34.3164 73.7148 34.2617 73.7891 34.2305 73.8594C34.207 73.9297 34.1953 74 34.1953 74.0703C34.1953 74.1328 34.207 74.1992 34.2305 74.2695C34.2617 74.3398 34.3086 74.4102 34.3711 74.4805C34.6602 74.8164 34.9492 75.125 35.2383 75.4062C35.5273 75.6875 35.8047 75.9297 36.0703 76.1328C36.3438 76.3281 36.6055 76.4844 36.8555 76.6016C37.1133 76.7109 37.3555 76.7656 37.582 76.7656C37.7617 76.7656 37.9531 76.7422 38.1562 76.6953C38.3594 76.6406 38.543 76.6133 38.707 76.6133C38.9336 76.6133 39.0898 76.6836 39.1758 76.8242C39.2695 76.957 39.3164 77.1367 39.3164 77.3633C39.3164 77.6211 39.2695 77.8516 39.1758 78.0547C39.082 78.2578 38.9531 78.4297 38.7891 78.5703C38.6328 78.7031 38.4453 78.8086 38.2266 78.8867C38.0078 78.957 37.7773 78.9922 37.5352 78.9922C37.1602 78.9922 36.7773 78.9258 36.3867 78.793C35.9961 78.6602 35.6055 78.4766 35.2148 78.2422C34.8242 78.0078 34.4375 77.7344 34.0547 77.4219C33.6719 77.1016 33.2969 76.7539 32.9297 76.3789C32.7891 76.2305 32.6445 76.1562 32.4961 76.1562C32.3398 76.1562 32.1953 76.2383 32.0625 76.4023C31.6953 76.8555 31.3398 77.2812 30.9961 77.6797C30.6602 78.0781 30.332 78.4258 30.0117 78.7227C29.6992 79.0195 29.3945 79.2539 29.0977 79.4258C28.8086 79.5977 28.5234 79.6836 28.2422 79.6836C28.0391 79.6836 27.8594 79.6445 27.7031 79.5664C27.5547 79.4805 27.4297 79.3789 27.3281 79.2617C27.2266 79.1445 27.1484 79.0234 27.0938 78.8984C27.0469 78.7734 27.0234 78.668 27.0234 78.582C27.0234 78.4727 27.0625 78.3711 27.1406 78.2773C27.2188 78.1758 27.332 78.0664 27.4805 77.9492C27.6289 77.8242 27.8008 77.6758 27.9961 77.5039C28.1992 77.332 28.4258 77.1172 28.6758 76.8594C28.9492 76.5859 29.25 76.25 29.5781 75.8516C29.9062 75.4453 30.2617 75.0117 30.6445 74.5508C30.6836 74.5039 30.7148 74.4531 30.7383 74.3984C30.7617 74.3359 30.7734 74.2734 30.7734 74.2109C30.7734 73.9922 30.6523 73.7148 30.4102 73.3789C29.9258 72.7148 29.5039 72.0938 29.1445 71.5156C28.7852 70.9297 28.5039 70.4609 28.3008 70.1094Z" fill="black"/>
<path d="M40.8455 75.8984C40.6267 75.8984 40.447 75.8086 40.3064 75.6289C40.1658 75.4414 40.0955 75.1719 40.0955 74.8203C40.0955 74.5078 40.2361 74.2734 40.5173 74.1172C40.7986 73.9609 41.2752 73.8516 41.947 73.7891C42.1658 73.7656 42.4509 73.7344 42.8025 73.6953C43.1619 73.6484 43.5252 73.6055 43.8923 73.5664C44.2673 73.5195 44.6189 73.4805 44.947 73.4492C45.283 73.418 45.5447 73.4023 45.7322 73.4023C46.0212 73.4023 46.2439 73.4883 46.4002 73.6602C46.5642 73.832 46.6462 74.1367 46.6462 74.5742C46.6462 75.0273 46.197 75.3008 45.2986 75.3945C45.1814 75.4102 45.0056 75.4336 44.7712 75.4648C44.5447 75.4883 44.2869 75.5195 43.9978 75.5586C43.7087 75.5977 43.4041 75.6367 43.0837 75.6758C42.7712 75.7148 42.4705 75.75 42.1814 75.7812C41.8923 75.8125 41.6267 75.8398 41.3845 75.8633C41.1502 75.8867 40.9705 75.8984 40.8455 75.8984Z" fill="black"/>
<path d="M47.3522 79.2031C47.2116 79.3516 47.0592 79.4258 46.8952 79.4258C46.7467 79.4258 46.6022 79.3711 46.4616 79.2617L45.817 78.7812C45.6452 78.625 45.5592 78.4727 45.5592 78.3242C45.5592 78.1758 45.6295 78.0312 45.7702 77.8906C46.0123 77.6484 46.2741 77.3789 46.5553 77.082C46.8366 76.7773 47.1139 76.4609 47.3873 76.1328C47.6608 75.8047 47.9186 75.4727 48.1608 75.1367C48.403 74.8008 48.6061 74.4688 48.7702 74.1406C48.8092 74.0781 48.8327 74.0195 48.8405 73.9648C48.8561 73.9102 48.8639 73.8594 48.8639 73.8125C48.8639 73.6641 48.7858 73.5078 48.6295 73.3438C48.4811 73.1797 48.2858 73.0156 48.0436 72.8516C47.8014 72.6875 47.5241 72.5273 47.2116 72.3711C46.9069 72.207 46.5983 72.0586 46.2858 71.9258C45.9733 71.7852 45.6725 71.6602 45.3834 71.5508C45.0944 71.4336 44.8483 71.3398 44.6452 71.2695C44.3717 71.1602 44.235 71.0078 44.235 70.8125C44.235 70.7344 44.2741 70.6055 44.3522 70.4258C44.4381 70.2461 44.5436 70.0625 44.6686 69.875C44.7936 69.6875 44.9303 69.5234 45.0788 69.3828C45.235 69.2422 45.3795 69.1719 45.5123 69.1719C45.5514 69.1719 45.5905 69.1758 45.6295 69.1836C45.6764 69.1836 45.7233 69.1953 45.7702 69.2188C46.192 69.3672 46.61 69.5352 47.0241 69.7227C47.4381 69.9102 47.8522 70.1133 48.2663 70.332C48.5475 70.4727 48.8678 70.6406 49.2272 70.8359C49.5944 71.0312 49.9381 71.25 50.2584 71.4922C50.5788 71.7344 50.8483 72.0039 51.067 72.3008C51.2936 72.5898 51.4069 72.9102 51.4069 73.2617C51.4069 73.6758 51.2663 74.1406 50.985 74.6562C50.7116 75.1719 50.3678 75.6992 49.9538 76.2383C49.5475 76.7773 49.11 77.3047 48.6413 77.8203C48.1725 78.3359 47.7428 78.7969 47.3522 79.2031Z" fill="black"/>
<path d="M55.3852 70.4961C55.2758 70.6758 55.1586 70.8125 55.0336 70.9062C54.9086 71 54.768 71.0469 54.6117 71.0469C54.5414 71.0469 54.4555 71.0312 54.3539 71C54.2523 70.9688 54.1 70.9062 53.8969 70.8125C53.5297 70.6094 53.3461 70.3516 53.3461 70.0391C53.3461 69.8594 53.4008 69.6836 53.5102 69.5117C53.7211 69.1836 53.9672 68.8828 54.2484 68.6094C54.5375 68.3281 54.8617 68.0859 55.2211 67.8828C55.5883 67.6797 55.9906 67.5195 56.4281 67.4023C56.8734 67.2852 57.3578 67.2266 57.8812 67.2266C58.4203 67.2266 58.932 67.3086 59.4164 67.4727C59.9008 67.6367 60.3266 67.8711 60.6937 68.1758C61.0609 68.4727 61.35 68.8398 61.5609 69.2773C61.7797 69.707 61.8891 70.1914 61.8891 70.7305C61.8891 71.3789 61.7602 72.0117 61.5023 72.6289C61.2445 73.2383 60.9086 73.832 60.4945 74.4102C60.0883 74.9805 59.6273 75.5273 59.1117 76.0508C58.5961 76.5664 58.0805 77.0508 57.5648 77.5039C57.4789 77.5742 57.4164 77.6445 57.3773 77.7148C57.3461 77.7852 57.3305 77.8516 57.3305 77.9141C57.3305 78 57.3695 78.0742 57.4477 78.1367C57.5336 78.1914 57.6547 78.2188 57.8109 78.2188C58.5922 78.2578 59.3656 78.3125 60.1312 78.3828C60.8969 78.4453 61.6664 78.5195 62.4398 78.6055C62.9633 78.6758 63.225 78.9336 63.225 79.3789C63.225 79.4414 63.2211 79.5156 63.2133 79.6016C63.2055 79.6797 63.1703 79.8281 63.1078 80.0469C63.0453 80.3125 62.9242 80.5078 62.7445 80.6328C62.5727 80.7578 62.3656 80.8203 62.1234 80.8203C61.9672 80.8203 61.7211 80.8047 61.3852 80.7734C61.0492 80.75 60.6586 80.7188 60.2133 80.6797C59.768 80.6406 59.2836 80.5938 58.7602 80.5391C58.2367 80.4922 57.7055 80.4492 57.1664 80.4102C56.6352 80.3711 56.1117 80.3359 55.5961 80.3047C55.0805 80.2812 54.6078 80.2695 54.1781 80.2695C54.0062 80.2695 53.8578 80.2305 53.7328 80.1523C53.6156 80.082 53.518 79.9883 53.4398 79.8711C53.3695 79.7461 53.3187 79.6016 53.2875 79.4375C53.2562 79.2734 53.2406 79.1016 53.2406 78.9219C53.2406 78.7031 53.2875 78.5156 53.3812 78.3594C53.4828 78.1953 53.6234 78.0469 53.8031 77.9141C54.1625 77.6484 54.5492 77.3555 54.9633 77.0352C55.3852 76.7148 55.807 76.375 56.2289 76.0156C56.6508 75.6562 57.0531 75.2812 57.4359 74.8906C57.8266 74.4922 58.1703 74.0898 58.4672 73.6836C58.7719 73.2695 59.0141 72.8555 59.1937 72.4414C59.3734 72.0195 59.4633 71.6016 59.4633 71.1875C59.4633 70.9062 59.4047 70.6562 59.2875 70.4375C59.1781 70.2109 59.0258 70.0195 58.8305 69.8633C58.643 69.6992 58.4242 69.5781 58.1742 69.5C57.9242 69.4141 57.6664 69.3711 57.4008 69.3711C56.8852 69.3711 56.4711 69.4805 56.1586 69.6992C55.8461 69.918 55.5883 70.1836 55.3852 70.4961Z" fill="black"/>
<path d="M66.9766 57.543C66.7969 57.5273 66.6523 57.4102 66.543 57.1914C66.4336 56.9727 66.3789 56.7305 66.3789 56.4648C66.3789 56.3398 66.3906 56.2188 66.4141 56.1016C66.4297 55.9766 66.4609 55.8672 66.5078 55.7734C66.5547 55.6797 66.6133 55.6055 66.6836 55.5508C66.7539 55.4883 66.8359 55.457 66.9297 55.457C67.2188 55.457 67.5508 55.4492 67.9258 55.4336C68.3008 55.4102 68.7031 55.3867 69.1328 55.3633C69.3516 55.3398 69.4727 55.2109 69.4961 54.9766C69.5664 53.8438 69.6641 52.8672 69.7891 52.0469C69.9141 51.2266 70.0664 50.5352 70.2461 49.9727C70.4258 49.4023 70.6289 48.9414 70.8555 48.5898C71.0898 48.2383 71.3477 47.9688 71.6289 47.7812C71.7148 47.7188 71.8164 47.6562 71.9336 47.5938C72.0508 47.5234 72.1602 47.4883 72.2617 47.4883C72.457 47.4883 72.6602 47.5391 72.8711 47.6406C73.0898 47.7344 73.2891 47.8594 73.4688 48.0156C73.6562 48.1641 73.8086 48.3359 73.9258 48.5312C74.043 48.7188 74.1016 48.9062 74.1016 49.0938C74.1016 49.1641 74.0859 49.2227 74.0547 49.2695C74.0234 49.3086 73.9844 49.3477 73.9375 49.3867C73.6328 49.6133 73.3633 49.8672 73.1289 50.1484C72.8945 50.4297 72.6953 50.7734 72.5312 51.1797C72.3672 51.5859 72.2305 52.0742 72.1211 52.6445C72.0117 53.2148 71.9297 53.9023 71.875 54.707C71.875 54.832 71.8945 54.9258 71.9336 54.9883C71.9805 55.043 72.0625 55.0703 72.1797 55.0703C72.4844 55.0703 72.7891 55.0469 73.0938 55C73.4062 54.9531 73.7031 54.9062 73.9844 54.8594C74.2656 54.8047 74.5312 54.7539 74.7812 54.707C75.0312 54.6602 75.2539 54.6367 75.4492 54.6367C75.5898 54.6367 75.6914 54.7227 75.7539 54.8945C75.8242 55.0586 75.8594 55.2617 75.8594 55.5039C75.8594 55.6445 75.8477 55.7891 75.8242 55.9375C75.8008 56.0859 75.7617 56.2188 75.707 56.3359C75.6602 56.4531 75.5977 56.5547 75.5195 56.6406C75.4414 56.7188 75.3438 56.7656 75.2266 56.7812L72.1094 57.1094C71.9453 57.1328 71.8438 57.1992 71.8047 57.3086C71.7734 57.418 71.7578 57.5703 71.7578 57.7656C71.7578 59.4922 71.8008 60.9766 71.8867 62.2188C71.9727 63.4609 72.0664 64.5039 72.168 65.3477C72.2773 66.1992 72.375 66.8672 72.4609 67.3516C72.5469 67.8438 72.5898 68.1992 72.5898 68.418C72.5898 68.582 72.5234 68.7305 72.3906 68.8633C72.2656 68.9961 72.1016 69.1094 71.8984 69.2031C71.7031 69.2969 71.4883 69.3672 71.2539 69.4141C71.0195 69.4688 70.8008 69.4961 70.5977 69.4961C70.4023 69.4961 70.2266 69.4609 70.0703 69.3906C69.9219 69.3281 69.8359 69.2188 69.8125 69.0625C69.7344 68.5156 69.668 67.9141 69.6133 67.2578C69.5586 66.6094 69.5117 65.8867 69.4727 65.0898C69.4414 64.3008 69.418 63.4375 69.4023 62.5C69.3867 61.5547 69.3789 60.5195 69.3789 59.3945C69.3789 59.1055 69.3789 58.8242 69.3789 58.5508C69.3789 58.2773 69.3867 58.0039 69.4023 57.7305C69.4023 57.4961 69.2734 57.3789 69.0156 57.3789L66.9766 57.543Z" fill="black"/>
<path d="M77.043 50.8516C77.0742 50.7109 77.1211 50.5898 77.1836 50.4883C77.2461 50.3789 77.332 50.2891 77.4414 50.2188C77.5586 50.1406 77.7031 50.082 77.875 50.043C78.0469 50.0039 78.2578 49.9844 78.5078 49.9844C78.7969 49.9844 79.0195 50.0469 79.1758 50.1719C79.3398 50.2891 79.4219 50.457 79.4219 50.6758C79.4219 50.7305 79.4141 50.8164 79.3984 50.9336C79.3828 51.043 79.3438 51.2461 79.2812 51.543C79.2031 51.9258 79.125 52.3555 79.0469 52.832C78.9766 53.3008 78.9102 53.7969 78.8477 54.3203C78.793 54.8438 78.7461 55.3867 78.707 55.9492C78.6758 56.5039 78.6602 57.0586 78.6602 57.6133C78.6602 58.168 78.6797 58.7305 78.7188 59.3008C78.7578 59.8633 78.8242 60.4258 78.918 60.9883C79.0195 61.5508 79.1484 62.1055 79.3047 62.6523C79.4688 63.1914 79.6758 63.7109 79.9258 64.2109C80.0039 64.375 80.0938 64.5273 80.1953 64.668C80.2969 64.8086 80.3906 64.9414 80.4766 65.0664C80.5625 65.1914 80.6367 65.3125 80.6992 65.4297C80.7617 65.5469 80.793 65.6641 80.793 65.7812C80.793 65.9141 80.7422 66.0391 80.6406 66.1562C80.5469 66.2812 80.375 66.4336 80.125 66.6133C79.8984 66.7695 79.7188 66.875 79.5859 66.9297C79.4609 66.9922 79.3516 67.0234 79.2578 67.0234C79.125 67.0234 78.9688 66.9414 78.7891 66.7773C78.6172 66.6211 78.4297 66.4062 78.2266 66.1328C77.8906 65.6562 77.5977 65.0898 77.3477 64.4336C77.1055 63.7852 76.9062 63.0898 76.75 62.3477C76.5938 61.6055 76.4766 60.8398 76.3984 60.0508C76.3203 59.2539 76.2812 58.4805 76.2812 57.7305C76.2812 56.5898 76.3516 55.4414 76.4922 54.2852C76.6328 53.1289 76.8164 51.9844 77.043 50.8516Z" fill="black"/>
<path d="M82.457 54.1094C82.3555 53.9453 82.2891 53.8086 82.2578 53.6992C82.2266 53.582 82.2109 53.4883 82.2109 53.418C82.2109 53.2852 82.2695 53.1484 82.3867 53.0078C82.5039 52.8672 82.6484 52.7422 82.8203 52.6328C82.9922 52.5156 83.1758 52.4219 83.3711 52.3516C83.5664 52.2734 83.7383 52.2344 83.8867 52.2344C83.9727 52.2344 84.0625 52.2695 84.1562 52.3398C84.2578 52.4023 84.3945 52.5703 84.5664 52.8438C84.8398 53.2891 85.125 53.75 85.4219 54.2266C85.7266 54.7031 86.0469 55.1836 86.3828 55.668C86.5156 55.8477 86.6523 55.9375 86.793 55.9375C86.9492 55.9375 87.0938 55.8555 87.2266 55.6914C87.7578 55.1055 88.293 54.5625 88.832 54.0625C89.3711 53.5625 89.9102 53.1562 90.4492 52.8438C90.7773 52.6484 91.0469 52.5195 91.2578 52.457C91.4688 52.3945 91.6211 52.3633 91.7148 52.3633C91.8633 52.3633 92.0156 52.4102 92.1719 52.5039C92.3281 52.5977 92.4688 52.7148 92.5938 52.8555C92.7266 52.9883 92.832 53.1289 92.9102 53.2773C92.9961 53.4258 93.0391 53.5586 93.0391 53.6758C93.0391 53.8555 92.9258 54.0312 92.6992 54.2031C92.4805 54.375 92.1602 54.5859 91.7383 54.8359C91.1523 55.1953 90.5938 55.6172 90.0625 56.1016C89.5391 56.5859 89.0352 57.0977 88.5508 57.6367C88.4727 57.7148 88.418 57.7891 88.3867 57.8594C88.3633 57.9297 88.3516 58 88.3516 58.0703C88.3516 58.1328 88.3633 58.1992 88.3867 58.2695C88.418 58.3398 88.4648 58.4102 88.5273 58.4805C88.8164 58.8164 89.1055 59.125 89.3945 59.4062C89.6836 59.6875 89.9609 59.9297 90.2266 60.1328C90.5 60.3281 90.7617 60.4844 91.0117 60.6016C91.2695 60.7109 91.5117 60.7656 91.7383 60.7656C91.918 60.7656 92.1094 60.7422 92.3125 60.6953C92.5156 60.6406 92.6992 60.6133 92.8633 60.6133C93.0898 60.6133 93.2461 60.6836 93.332 60.8242C93.4258 60.957 93.4727 61.1367 93.4727 61.3633C93.4727 61.6211 93.4258 61.8516 93.332 62.0547C93.2383 62.2578 93.1094 62.4297 92.9453 62.5703C92.7891 62.7031 92.6016 62.8086 92.3828 62.8867C92.1641 62.957 91.9336 62.9922 91.6914 62.9922C91.3164 62.9922 90.9336 62.9258 90.543 62.793C90.1523 62.6602 89.7617 62.4766 89.3711 62.2422C88.9805 62.0078 88.5938 61.7344 88.2109 61.4219C87.8281 61.1016 87.4531 60.7539 87.0859 60.3789C86.9453 60.2305 86.8008 60.1562 86.6523 60.1562C86.4961 60.1562 86.3516 60.2383 86.2188 60.4023C85.8516 60.8555 85.4961 61.2812 85.1523 61.6797C84.8164 62.0781 84.4883 62.4258 84.168 62.7227C83.8555 63.0195 83.5508 63.2539 83.2539 63.4258C82.9648 63.5977 82.6797 63.6836 82.3984 63.6836C82.1953 63.6836 82.0156 63.6445 81.8594 63.5664C81.7109 63.4805 81.5859 63.3789 81.4844 63.2617C81.3828 63.1445 81.3047 63.0234 81.25 62.8984C81.2031 62.7734 81.1797 62.668 81.1797 62.582C81.1797 62.4727 81.2188 62.3711 81.2969 62.2773C81.375 62.1758 81.4883 62.0664 81.6367 61.9492C81.7852 61.8242 81.957 61.6758 82.1523 61.5039C82.3555 61.332 82.582 61.1172 82.832 60.8594C83.1055 60.5859 83.4062 60.25 83.7344 59.8516C84.0625 59.4453 84.418 59.0117 84.8008 58.5508C84.8398 58.5039 84.8711 58.4531 84.8945 58.3984C84.918 58.3359 84.9297 58.2734 84.9297 58.2109C84.9297 57.9922 84.8086 57.7148 84.5664 57.3789C84.082 56.7148 83.6602 56.0938 83.3008 55.5156C82.9414 54.9297 82.6602 54.4609 82.457 54.1094Z" fill="black"/>
<path d="M97.8906 66.1562C97.8594 66.2969 97.8125 66.418 97.75 66.5195C97.6875 66.6289 97.6016 66.7188 97.4922 66.7891C97.3828 66.8672 97.2383 66.9258 97.0586 66.9648C96.8867 67.0039 96.6758 67.0234 96.4258 67.0234C96.1367 67.0234 95.9102 66.9609 95.7461 66.8359C95.5898 66.7188 95.5117 66.5508 95.5117 66.332C95.5117 66.2773 95.5195 66.1914 95.5352 66.0742C95.5586 65.9648 95.6016 65.7617 95.6641 65.4648C95.7422 65.082 95.8164 64.6523 95.8867 64.1758C95.9648 63.707 96.0312 63.2109 96.0859 62.6875C96.1484 62.1641 96.1953 61.625 96.2266 61.0703C96.2656 60.5078 96.2852 59.9492 96.2852 59.3945C96.2852 58.2773 96.1953 57.1523 96.0156 56.0195C95.8359 54.8867 95.5 53.8125 95.0078 52.7969C94.9297 52.6328 94.8398 52.4805 94.7383 52.3398C94.6445 52.1992 94.5508 52.0664 94.457 51.9414C94.3711 51.8164 94.2969 51.6953 94.2344 51.5781C94.1797 51.4609 94.1523 51.3438 94.1523 51.2266C94.1523 51.0938 94.1992 50.9688 94.293 50.8516C94.3945 50.7266 94.5703 50.5742 94.8203 50.3945C95.0469 50.2383 95.2227 50.1328 95.3477 50.0781C95.4727 50.0156 95.5859 49.9844 95.6875 49.9844C95.8203 49.9844 95.9727 50.0664 96.1445 50.2305C96.3242 50.3867 96.5156 50.6016 96.7188 50.875C97.0547 51.3516 97.3438 51.918 97.5859 52.5742C97.8359 53.2227 98.0391 53.9219 98.1953 54.6719C98.3516 55.4141 98.4688 56.1797 98.5469 56.9688C98.625 57.7578 98.6641 58.5273 98.6641 59.2773C98.6641 60.418 98.5898 61.5664 98.4414 62.7227C98.3008 63.8789 98.1172 65.0234 97.8906 66.1562Z" fill="black"/>
</svg>
