<svg width="130" height="121" fill="none" xmlns="http://www.w3.org/2000/svg"><path d="M73.994.55c12.025 2.43 19.674 13.258 28.721 21.543 9.974 9.135 23.954 15.975 26.706 29.217 2.799 13.47-5.056 26.767-12.697 38.207-7.133 10.679-17.146 18.836-28.883 24.047-11.55 5.129-24.52 8.635-36.638 5.047-11.617-3.44-17.933-15.009-26.37-23.704-8.646-8.91-20.44-15.672-23.513-27.7C-1.921 54.522.98 40.474 8.119 29.499c6.885-10.588 19.344-15.19 30.906-20.27C50.295 4.274 61.926-1.888 73.994.55Z" fill="#FAF8FE"/><path d="M27.34 42.652c0-.406.117-.695.351-.867.235-.172.622-.258 1.16-.258.188 0 .352.02.493.059.14.039.258.105.351.2a.872.872 0 0 1 .223.362c.063.149.113.34.152.575.102.695.203 1.425.305 2.191.11.758.21 1.516.305 2.273a142.819 142.819 0 0 1 .504 4.196c.07.61.12 1.152.152 1.629.039.468.059.84.059 1.113 0 .281-.028.52-.082.715a.917.917 0 0 1-.258.469 1.047 1.047 0 0 1-.47.257c-.187.047-.42.07-.702.07-.274 0-.492-.07-.656-.21-.157-.14-.235-.356-.235-.645 0-.297-.023-.691-.07-1.183a49.72 49.72 0 0 0-.188-1.664 103.11 103.11 0 0 0-.27-1.946 79.901 79.901 0 0 0-.304-2.039 151.7 151.7 0 0 0-.305-1.933c-.093-.625-.18-1.176-.257-1.653a163.1 163.1 0 0 1-.188-1.183 7.756 7.756 0 0 1-.07-.528ZM35.027 44.047a2.18 2.18 0 0 1-.644-.094 1.818 1.818 0 0 1-.516-.281 1.522 1.522 0 0 1-.34-.434 1.145 1.145 0 0 1-.129-.539c0-.328.13-.593.387-.797.266-.203.617-.304 1.055-.304.203 0 .398.039.586.117.187.07.351.168.492.293.148.125.266.273.352.445.085.164.128.336.128.516a.957.957 0 0 1-.375.797c-.242.187-.574.28-.996.28Zm-1.605 3.574c0-.273.117-.496.351-.668.243-.18.559-.27.95-.27.703 0 1.078.243 1.125.727.03.336.062.715.093 1.137.04.422.075.871.106 1.348.039.468.07.957.094 1.464a100.644 100.644 0 0 1 .14 2.895c.016.453.024.867.024 1.242 0 .39-.14.684-.422.879-.274.195-.676.293-1.207.293-.242 0-.434-.059-.574-.176-.133-.11-.2-.273-.2-.492a52.08 52.08 0 0 0-.082-3.023 72.057 72.057 0 0 0-.164-2.52 49.554 49.554 0 0 0-.164-1.828c-.047-.492-.07-.828-.07-1.008ZM39.516 56.504a32.448 32.448 0 0 0-.27-2.871 35.092 35.092 0 0 0-.375-2.309 29.857 29.857 0 0 0-.34-1.593c-.093-.407-.14-.66-.14-.762a.7.7 0 0 1 .164-.434c.117-.14.261-.262.433-.363.172-.11.356-.195.551-.258.203-.062.387-.094.55-.094.134 0 .247.024.34.07a.392.392 0 0 1 .212.235c.039.133.074.273.105.422.04.14.078.312.117.516.047.289.11.433.188.433.086 0 .183-.129.293-.387.156-.359.324-.656.504-.89.18-.235.37-.418.574-.551.21-.14.426-.238.644-.293.227-.055.461-.082.703-.082.735 0 1.356.289 1.864.867.515.578.918 1.414 1.207 2.508.039.125.074.207.105.246a.146.146 0 0 0 .106.047.188.188 0 0 0 .117-.047.52.52 0 0 0 .129-.223c.187-.507.406-.937.656-1.289.25-.359.508-.648.774-.867.273-.226.55-.39.832-.492.28-.102.55-.152.808-.152.477 0 .906.175 1.29.527.39.344.734.879 1.03 1.605.305.72.567 1.633.786 2.743.226 1.101.414 2.41.562 3.925 0 .422-.129.715-.387.88-.257.171-.609.257-1.054.257-.29 0-.516-.062-.68-.187a.696.696 0 0 1-.281-.493 54.813 54.813 0 0 0-.34-2.894 21.914 21.914 0 0 0-.387-2.145c-.14-.586-.297-1.03-.468-1.336-.165-.304-.348-.457-.551-.457-.102 0-.23.075-.387.223-.148.148-.309.422-.48.82-.172.391-.352.93-.54 1.618-.187.68-.367 1.55-.539 2.613a.947.947 0 0 1-.433.68c-.235.156-.524.234-.867.234-.399 0-.676-.063-.832-.188-.149-.125-.23-.336-.246-.632a16.75 16.75 0 0 0-.165-1.536 15.293 15.293 0 0 0-.632-2.754 7.388 7.388 0 0 0-.422-1.03 2.858 2.858 0 0 0-.457-.692c-.157-.164-.309-.246-.457-.246-.196 0-.387.136-.575.41-.18.273-.343.66-.492 1.16-.14.5-.254 1.102-.34 1.805a19.547 19.547 0 0 0-.129 2.355c0 .149.004.297.012.446.008.14.012.289.012.445 0 .234-.04.426-.117.574a.811.811 0 0 1-.317.352c-.132.086-.289.144-.468.175a3.42 3.42 0 0 1-.586.047c-.196 0-.352-.015-.47-.047a.575.575 0 0 1-.269-.117.422.422 0 0 1-.129-.222 1.566 1.566 0 0 1-.046-.305ZM28.3 70.11a1.735 1.735 0 0 1-.198-.41 1.153 1.153 0 0 1-.047-.282c0-.133.058-.27.175-.41.118-.14.262-.266.434-.375a2.44 2.44 0 0 1 .55-.281c.196-.079.368-.118.517-.118.085 0 .175.035.269.106.102.062.238.23.41.504.274.445.559.906.856 1.383.304.476.625.957.96 1.441.133.18.27.27.41.27.157 0 .301-.082.434-.247a26.48 26.48 0 0 1 1.606-1.629 9.132 9.132 0 0 1 1.617-1.218c.328-.196.598-.325.809-.387.21-.063.363-.094.457-.094.148 0 .3.047.457.14.156.095.297.212.422.353.132.132.238.273.316.421a.817.817 0 0 1 .129.399c0 .18-.114.355-.34.527-.219.172-.54.383-.961.633-.586.36-1.145.781-1.676 1.266-.523.484-1.027.996-1.511 1.535a.77.77 0 0 0-.165.222.629.629 0 0 0 0 .41c.032.07.079.141.141.212.29.335.578.644.867.925.29.281.567.524.832.727.274.195.535.351.785.469.258.109.5.164.727.164.18 0 .371-.024.574-.07a2.14 2.14 0 0 1 .551-.083c.227 0 .383.07.469.211.093.133.14.313.14.54 0 .257-.047.488-.14.69a1.496 1.496 0 0 1-.387.516 1.787 1.787 0 0 1-.562.317c-.22.07-.45.105-.692.105-.375 0-.758-.066-1.148-.199a6.095 6.095 0 0 1-1.172-.55 9.865 9.865 0 0 1-1.16-.821c-.383-.32-.758-.668-1.125-1.043-.14-.148-.285-.223-.434-.223-.156 0-.3.082-.434.246-.367.454-.722.88-1.066 1.278-.336.398-.664.746-.984 1.043a4.957 4.957 0 0 1-.914.703c-.29.172-.575.258-.856.258a1.19 1.19 0 0 1-.539-.118 1.456 1.456 0 0 1-.61-.668.934.934 0 0 1-.07-.316c0-.11.04-.21.118-.305a1.97 1.97 0 0 1 .34-.328 31.8 31.8 0 0 0 .515-.445 9.68 9.68 0 0 0 .68-.645c.273-.273.574-.609.902-1.007.328-.407.684-.84 1.067-1.301a.618.618 0 0 0 .093-.153.532.532 0 0 0 .035-.187c0-.219-.12-.496-.363-.832a30.62 30.62 0 0 1-1.265-1.863 66.06 66.06 0 0 1-.844-1.407ZM40.846 75.898a.655.655 0 0 1-.54-.27c-.14-.187-.21-.456-.21-.808 0-.312.14-.547.421-.703.282-.156.758-.265 1.43-.328.219-.023.504-.055.855-.094.36-.047.723-.09 1.09-.129.375-.047.727-.085 1.055-.117.336-.031.598-.047.785-.047.29 0 .512.086.668.258.164.172.246.477.246.914 0 .453-.449.727-1.347.82-.118.016-.293.04-.528.07-.226.024-.484.055-.773.095a71.078 71.078 0 0 1-2.613.304 5.848 5.848 0 0 1-.54.035Z" fill="#000"/><path d="M47.352 79.203c-.14.149-.293.223-.457.223a.7.7 0 0 1-.433-.164l-.645-.48c-.172-.157-.258-.31-.258-.458 0-.148.07-.293.211-.433.242-.243.504-.512.785-.809.282-.305.559-.621.832-.95.274-.327.532-.66.774-.995.242-.336.445-.668.61-.996a.46.46 0 0 0 .07-.176.557.557 0 0 0 .023-.153c0-.148-.078-.304-.234-.468a3.226 3.226 0 0 0-.586-.492 7.32 7.32 0 0 0-.832-.48 11.143 11.143 0 0 0-.926-.446c-.313-.14-.614-.266-.903-.375a15.583 15.583 0 0 0-.738-.282c-.273-.109-.41-.261-.41-.457 0-.078.04-.206.117-.386.086-.18.192-.364.317-.551.125-.188.261-.352.41-.492.156-.14.3-.211.433-.211.04 0 .078.004.117.012.047 0 .094.011.141.035.422.148.84.316 1.254.504.414.187.828.39 1.242.609.282.14.602.309.961.504.367.195.711.414 1.031.656.32.242.59.512.809.809.227.289.34.61.34.96 0 .415-.14.88-.422 1.395a11.324 11.324 0 0 1-1.031 1.582 22.38 22.38 0 0 1-1.313 1.582c-.468.516-.898.977-1.289 1.383ZM55.385 70.496c-.11.18-.226.317-.351.41a.685.685 0 0 1-.422.14.907.907 0 0 1-.258-.046 4.085 4.085 0 0 1-.457-.188c-.367-.203-.55-.46-.55-.773 0-.18.054-.355.163-.527.211-.328.457-.63.738-.903.29-.28.614-.523.973-.726a5.335 5.335 0 0 1 2.66-.656c.54 0 1.051.082 1.535.246.485.164.91.398 1.278.703.367.297.656.664.867 1.101.219.43.328.914.328 1.454a4.88 4.88 0 0 1-.387 1.898 9.247 9.247 0 0 1-1.008 1.781c-.406.57-.867 1.117-1.382 1.64-.516.516-1.032 1-1.547 1.454a.76.76 0 0 0-.188.21.493.493 0 0 0-.047.2c0 .086.04.16.118.223a.676.676 0 0 0 .363.082c.781.039 1.555.094 2.32.164a79.16 79.16 0 0 1 2.309.223c.523.07.785.328.785.773 0 .062-.004.137-.012.223a3.16 3.16 0 0 1-.105.445c-.063.266-.184.46-.363.586a1.027 1.027 0 0 1-.622.187c-.156 0-.402-.015-.738-.047a88.593 88.593 0 0 1-2.625-.234 120.766 120.766 0 0 0-3.164-.234 31.335 31.335 0 0 0-1.418-.035.822.822 0 0 1-.445-.118.915.915 0 0 1-.293-.28 1.42 1.42 0 0 1-.152-.434 2.747 2.747 0 0 1-.047-.516c0-.219.047-.406.14-.563.102-.164.242-.312.422-.445.36-.266.746-.558 1.16-.879.422-.32.844-.66 1.266-1.02.422-.359.824-.734 1.207-1.124.39-.399.734-.801 1.031-1.207.305-.415.547-.828.727-1.243.18-.422.27-.84.27-1.254 0-.28-.06-.53-.176-.75a1.637 1.637 0 0 0-.457-.574 1.797 1.797 0 0 0-.657-.363 2.364 2.364 0 0 0-.773-.129c-.516 0-.93.11-1.242.328-.313.219-.57.485-.774.797ZM66.977 57.543c-.18-.016-.325-.133-.434-.352a1.601 1.601 0 0 1-.164-.726c0-.125.012-.246.035-.363a1.01 1.01 0 0 1 .094-.329.637.637 0 0 1 .176-.222.359.359 0 0 1 .246-.094c.289 0 .62-.008.996-.023.375-.024.777-.047 1.207-.07.219-.024.34-.153.363-.387.07-1.133.168-2.11.293-2.93.125-.82.277-1.512.457-2.074.18-.57.383-1.032.61-1.383a2.854 2.854 0 0 1 1.078-.996.644.644 0 0 1 .328-.106c.195 0 .398.051.61.153.218.093.417.218.597.375.187.148.34.32.457.515.117.188.176.375.176.563a.31.31 0 0 1-.047.175.825.825 0 0 1-.118.118c-.304.226-.574.48-.808.761a3.85 3.85 0 0 0-.598 1.032c-.164.406-.3.894-.41 1.465-.11.57-.191 1.257-.246 2.062 0 .125.02.219.059.281.047.055.129.082.246.082a6 6 0 0 0 .914-.07 57 57 0 0 0 .89-.14l.797-.153c.25-.047.473-.07.668-.07.14 0 .242.086.305.258.07.164.105.367.105.609 0 .14-.011.285-.035.434a1.484 1.484 0 0 1-.117.398.997.997 0 0 1-.188.305.493.493 0 0 1-.292.14l-3.118.328c-.164.024-.265.09-.304.2-.032.109-.047.261-.047.457 0 1.726.043 3.21.129 4.453.086 1.242.18 2.285.281 3.129.11.851.207 1.52.293 2.004.086.492.129.847.129 1.066a.616.616 0 0 1-.2.445 1.567 1.567 0 0 1-.492.34 2.71 2.71 0 0 1-.644.211 2.897 2.897 0 0 1-.656.082c-.196 0-.371-.035-.528-.105a.4.4 0 0 1-.257-.329 31.11 31.11 0 0 1-.2-1.804 62.086 62.086 0 0 1-.14-2.168c-.032-.79-.055-1.653-.07-2.59-.016-.945-.024-1.98-.024-3.105v-.844c0-.274.008-.547.023-.82 0-.235-.129-.352-.386-.352l-2.04.164ZM77.043 50.852c.031-.141.078-.262.14-.364.063-.11.149-.199.258-.27a1.29 1.29 0 0 1 .434-.175c.172-.04.383-.059.633-.059.289 0 .511.063.668.188a.582.582 0 0 1 .246.504c0 .054-.008.14-.024.258-.015.109-.054.312-.117.609-.078.383-.156.813-.234 1.289-.07.469-.137.965-.2 1.488a47.139 47.139 0 0 0-.14 1.63c-.031.554-.047 1.109-.047 1.663 0 .555.02 1.117.059 1.688.039.562.105 1.125.199 1.687.101.563.23 1.117.387 1.664.164.54.37 1.059.62 1.559.079.164.169.316.27.457.102.14.196.273.282.398.085.125.16.246.222.364a.741.741 0 0 1 .094.351c0 .133-.05.258-.152.375-.094.125-.266.278-.516.457a3.173 3.173 0 0 1-.54.317.755.755 0 0 1-.327.093c-.133 0-.29-.082-.469-.246a4.523 4.523 0 0 1-.562-.644 7.69 7.69 0 0 1-.88-1.7 14.48 14.48 0 0 1-.597-2.085 21.393 21.393 0 0 1-.352-2.297 23.796 23.796 0 0 1-.117-2.32c0-1.141.07-2.29.211-3.446.14-1.156.324-2.3.551-3.433ZM82.457 54.11a1.743 1.743 0 0 1-.2-.41 1.158 1.158 0 0 1-.046-.282c0-.133.058-.27.176-.41.117-.14.261-.266.433-.375.172-.117.356-.211.551-.281.195-.079.367-.118.516-.118.086 0 .175.035.27.106.1.062.237.23.41.504.273.445.558.906.855 1.383.305.476.625.957.96 1.441.134.18.27.27.411.27.156 0 .3-.083.434-.247a26.48 26.48 0 0 1 1.605-1.629 9.14 9.14 0 0 1 1.617-1.218c.328-.196.598-.325.809-.387.21-.063.363-.094.457-.094.148 0 .3.047.457.14.156.095.297.212.422.352.133.133.238.274.316.422a.817.817 0 0 1 .13.399c0 .18-.114.355-.34.527a9.31 9.31 0 0 1-.962.633 11.1 11.1 0 0 0-1.675 1.266c-.524.484-1.028.996-1.512 1.535a.772.772 0 0 0-.164.222.632.632 0 0 0 0 .41c.031.07.078.141.14.212.29.335.579.644.867.925.29.282.567.524.833.727.273.195.535.351.785.469.257.109.5.164.726.164.18 0 .371-.024.575-.07.203-.055.386-.083.55-.083.227 0 .383.07.469.211.094.133.14.313.14.54 0 .257-.046.488-.14.69a1.493 1.493 0 0 1-.387.516 1.785 1.785 0 0 1-.562.317c-.219.07-.45.105-.692.105-.375 0-.757-.066-1.148-.199a6.09 6.09 0 0 1-1.172-.55 9.874 9.874 0 0 1-1.16-.821c-.383-.32-.758-.668-1.125-1.043-.14-.148-.285-.223-.434-.223-.156 0-.3.082-.433.246-.367.453-.723.88-1.067 1.278-.336.398-.664.746-.984 1.043a4.954 4.954 0 0 1-.914.703c-.29.172-.574.258-.856.258a1.19 1.19 0 0 1-.539-.118 1.452 1.452 0 0 1-.609-.668.934.934 0 0 1-.07-.316c0-.11.039-.21.117-.305a1.97 1.97 0 0 1 .34-.328c.148-.125.32-.273.515-.445.204-.172.43-.387.68-.645.274-.273.574-.609.902-1.007.329-.407.684-.84 1.067-1.301a.617.617 0 0 0 .093-.153.53.53 0 0 0 .036-.187c0-.219-.121-.496-.364-.832a30.615 30.615 0 0 1-1.265-1.863c-.36-.586-.64-1.055-.844-1.407ZM97.89 66.156c-.03.14-.078.262-.14.363a.773.773 0 0 1-.258.27c-.11.078-.254.137-.433.176-.172.039-.383.058-.633.058-.29 0-.516-.062-.68-.187-.156-.117-.234-.285-.234-.504 0-.055.007-.14.023-.258l.13-.61c.077-.382.151-.812.222-1.288.078-.469.144-.965.199-1.489.062-.523.11-1.062.14-1.617.04-.562.06-1.12.06-1.675 0-1.118-.09-2.243-.27-3.376a11.466 11.466 0 0 0-1.008-3.222 2.935 2.935 0 0 0-.27-.457 8.81 8.81 0 0 0-.281-.399 3.81 3.81 0 0 1-.223-.363.825.825 0 0 1-.082-.351.59.59 0 0 1 .141-.375c.101-.125.277-.278.527-.457.227-.157.403-.262.528-.317a.771.771 0 0 1 .34-.094c.132 0 .285.082.456.246.18.157.372.372.575.645.336.477.625 1.043.867 1.7.25.648.453 1.347.61 2.097.156.742.273 1.508.35 2.297.079.789.118 1.558.118 2.308 0 1.141-.074 2.29-.223 3.446a45.5 45.5 0 0 1-.55 3.433Z" fill="#000"/></svg>