<svg width="116" height="118" viewBox="0 0 116 118" fill="none" xmlns="http://www.w3.org/2000/svg">
<path d="M56.4716 4.69901C67.421 5.96489 78.4739 5.30004 88.2092 10.4688C99.2493 16.3303 110.828 23.7739 114.752 35.6418C118.701 47.59 112.354 59.9519 108.531 71.9412C104.605 84.2523 102.237 97.8472 92.2866 106.092C81.9649 114.644 67.758 118.786 54.5176 116.695C42.0164 114.722 33.6536 103.818 24.2476 95.3501C15.7666 87.7151 6.45273 80.6712 2.57914 69.9373C-1.41725 58.8631 -0.271162 46.889 2.64274 35.482C5.7821 23.1925 8.78008 8.85561 19.791 2.55883C30.6896 -3.67376 43.9997 3.25711 56.4716 4.69901Z" fill="white"/>
<g clip-path="url(#clip0_24_110)">
<path d="M84.1667 85L32.8334 33M84.1667 33L32.8334 85" stroke="black" stroke-width="2" stroke-linecap="round"/>
<path d="M80.5555 42.8889H35.4444C34.5898 42.8889 33.7702 43.2284 33.1659 43.8327C32.5617 44.437 32.2222 45.2566 32.2222 46.1111V71.8889C32.2222 72.7435 32.5617 73.5631 33.1659 74.1674C33.7702 74.7717 34.5898 75.1111 35.4444 75.1111H80.5555C81.4101 75.1111 82.2297 74.7717 82.834 74.1674C83.4382 73.5631 83.7777 72.7435 83.7777 71.8889V46.1111C83.7777 45.2566 83.4382 44.437 82.834 43.8327C82.2297 43.2284 81.4101 42.8889 80.5555 42.8889ZM35.4444 71.8889V64.075C37.4584 64.2233 39.3503 65.0969 40.7694 66.5337C42.1885 67.9705 43.0384 69.8732 43.1616 71.8889H35.4444ZM35.4444 53.925V46.1111H43.1616C43.0384 48.1268 42.1885 50.0295 40.7694 51.4664C39.3503 52.9032 37.4584 53.7767 35.4444 53.925ZM57.9999 70.5195C52.4094 70.5195 47.8499 65.3478 47.8499 59C47.8499 52.6522 52.4094 47.4806 57.9999 47.4806C63.5905 47.4806 68.1499 52.6522 68.1499 59C68.1499 65.3478 63.5905 70.5195 57.9999 70.5195ZM80.5555 71.8889H72.9027C73.0241 69.8834 73.8649 67.989 75.2707 66.5536C76.6765 65.1182 78.553 64.2381 80.5555 64.075V71.8889ZM80.5555 53.925C78.553 53.7619 76.6765 52.8818 75.2707 51.4464C73.8649 50.011 73.0241 48.1166 72.9027 46.1111H80.5555V53.925Z" fill="black"/>
<path d="M58 66.6045C61.5592 66.6045 64.4444 63.1998 64.4444 59C64.4444 54.8002 61.5592 51.3956 58 51.3956C54.4408 51.3956 51.5555 54.8002 51.5555 59C51.5555 63.1998 54.4408 66.6045 58 66.6045Z" fill="black"/>
</g>
<defs>
<clipPath id="clip0_24_110">
<rect width="58" height="58" fill="white" transform="translate(29 30)"/>
</clipPath>
</defs>
</svg>
