<svg width="116" height="121" viewBox="0 0 116 121" fill="none" xmlns="http://www.w3.org/2000/svg">
<path d="M78.3568 1.19631C90.9254 4.33317 102.306 12.1296 109.387 22.9769C116.202 33.4166 115.994 46.3919 116 58.8592C116.006 71.0708 115.593 83.4502 109.42 93.9866C102.912 105.094 93.2923 114.984 80.9581 118.669C68.8645 122.282 55.8486 118.717 44.3954 113.413C34.083 108.637 27.5895 99.2181 20.2394 90.5504C12.3783 81.28 1.31686 73.3059 0.128179 61.2094C-1.08716 48.8418 6.55197 37.5189 14.0547 27.6121C21.3024 18.0419 30.7439 10.6825 41.8483 6.1207C53.4918 1.33746 66.1437 -1.85182 78.3568 1.19631Z" fill="white"/>
<g clip-path="url(#clip0_24_105)">
<path d="M79.75 38.25H36.25C35.2886 38.25 34.3666 38.6319 33.6867 39.3117C33.0069 39.9916 32.625 40.9136 32.625 41.875V70.875C32.625 71.8364 33.0069 72.7584 33.6867 73.4383C34.3666 74.1181 35.2886 74.5 36.25 74.5H50.75V81.75H43.5V85.375H72.5V81.75H65.25V74.5H79.75C80.7114 74.5 81.6334 74.1181 82.3133 73.4383C82.9931 72.7584 83.375 71.8364 83.375 70.875V41.875C83.375 40.9136 82.9931 39.9916 82.3133 39.3117C81.6334 38.6319 80.7114 38.25 79.75 38.25ZM61.625 81.75H54.375V74.5H61.625V81.75ZM79.75 70.875H36.25V41.875H79.75V70.875Z" fill="black"/>
<path d="M65 44H51.5C51.1025 44.0012 50.7217 44.1596 50.4407 44.4407C50.1596 44.7217 50.0012 45.1025 50 45.5V56C50.0012 56.3975 50.1596 56.7783 50.4407 57.0593C50.7217 57.3404 51.1025 57.4988 51.5 57.5H65C65.3975 57.4988 65.7783 57.3404 66.0593 57.0593C66.3404 56.7783 66.4988 56.3975 66.5 56V45.5C66.4988 45.1025 66.3404 44.7217 66.0593 44.4407C65.7783 44.1596 65.3975 44.0012 65 44ZM65 56H51.5V45.5H65V56Z" fill="black"/>
<path d="M84.1667 86L32.8334 34M84.1667 34L32.8334 86" stroke="black" stroke-width="2" stroke-linecap="round"/>
</g>
<defs>
<clipPath id="clip0_24_105">
<rect width="58" height="58" fill="white" transform="translate(29 31)"/>
</clipPath>
</defs>
</svg>
