<svg width="345" height="289" fill="none" xmlns="http://www.w3.org/2000/svg"><path d="M0 289c5.902-19.268 11.803-38.537 19.938-56.868 7.975-18.331 18.183-35.828 30.783-54.055 12.76-18.227 28.072-37.287 52.954-46.661 24.883-9.374 59.335-8.957 85.014-19.164 25.68-10.207 42.428-31.038 66.991-40.932 24.563-9.79 56.941-8.75 89.32-7.604V289H0Z" fill="#4E2C96"/><circle cx="73" cy="2" r="2" fill="#4E2C96"/><circle cx="113" cy="2" r="2" fill="#4E2C96"/><circle cx="153" cy="2" r="2" fill="#4E2C96"/><circle cx="193" cy="2" r="2" fill="#4E2C96"/><circle cx="233" cy="2" r="2" fill="#4E2C96"/><circle cx="273" cy="2" r="2" fill="#4E2C96"/><circle cx="73" cy="42" r="2" fill="#4E2C96"/><circle cx="113" cy="42" r="2" fill="#4E2C96"/><circle cx="153" cy="42" r="2" fill="#4E2C96"/><circle cx="193" cy="42" r="2" fill="#4E2C96"/><circle cx="233" cy="42" r="2" fill="#4E2C96"/><circle cx="273" cy="42" r="2" fill="#4E2C96"/><circle cx="73" cy="82" r="2" fill="#4E2C96"/><circle cx="113" cy="82" r="2" fill="#4E2C96"/><circle cx="153" cy="82" r="2" fill="#4E2C96"/><circle cx="193" cy="82" r="2" fill="#4E2C96"/><circle cx="233" cy="82" r="2" fill="#4E2C96"/><circle cx="273" cy="82" r="2" fill="#4E2C96"/><circle cx="73" cy="122" r="2" fill="#4E2C96"/><circle cx="113" cy="122" r="2" fill="#4E2C96"/><circle cx="153" cy="122" r="2" fill="#4E2C96"/><circle cx="193" cy="122" r="2" fill="#4E2C96"/><circle cx="233" cy="122" r="2" fill="#4E2C96"/><circle cx="273" cy="122" r="2" fill="#4E2C96"/><circle cx="73" cy="162" r="2" fill="#4E2C96"/><circle cx="113" cy="162" r="2" fill="#4E2C96"/><circle cx="153" cy="162" r="2" fill="#4E2C96"/><circle cx="193" cy="162" r="2" fill="#4E2C96"/><circle cx="233" cy="162" r="2" fill="#4E2C96"/><circle cx="273" cy="162" r="2" fill="#4E2C96"/></svg>