<svg width="359" height="93" fill="none" xmlns="http://www.w3.org/2000/svg"><path d="M135.557 40.423v4.44h-11.4v37.38h-5.46v-37.38h-11.46v-4.44h28.32ZM140.238 65.683c0-3.36.68-6.3 2.04-8.82 1.36-2.56 3.22-4.54 5.58-5.94 2.4-1.4 5.06-2.1 7.98-2.1 2.88 0 5.38.62 7.5 1.86 2.12 1.24 3.7 2.8 4.74 4.68v-6h5.52v32.88h-5.52v-6.12c-1.08 1.92-2.7 3.52-4.86 4.8-2.12 1.24-4.6 1.86-7.44 1.86-2.92 0-5.56-.72-7.92-2.16-2.36-1.44-4.22-3.46-5.58-6.06-1.36-2.6-2.04-5.56-2.04-8.88Zm27.84.06c0-2.48-.5-4.64-1.5-6.48-1-1.84-2.36-3.24-4.08-4.2-1.68-1-3.54-1.5-5.58-1.5s-3.9.48-5.58 1.44c-1.68.96-3.02 2.36-4.02 4.2-1 1.84-1.5 4-1.5 6.48 0 2.52.5 4.72 1.5 6.6 1 1.84 2.34 3.26 4.02 4.26 1.68.96 3.54 1.44 5.58 1.44s3.9-.48 5.58-1.44c1.72-1 3.08-2.42 4.08-4.26 1-1.88 1.5-4.06 1.5-6.54ZM180.785 65.683c0-3.36.68-6.3 2.04-8.82 1.36-2.56 3.22-4.54 5.58-5.94 2.4-1.4 5.06-2.1 7.98-2.1 2.88 0 5.38.62 7.5 1.86 2.12 1.24 3.7 2.8 4.74 4.68v-6h5.52v32.88h-5.52v-6.12c-1.08 1.92-2.7 3.52-4.86 4.8-2.12 1.24-4.6 1.86-7.44 1.86-2.92 0-5.56-.72-7.92-2.16-2.36-1.44-4.22-3.46-5.58-6.06-1.36-2.6-2.04-5.56-2.04-8.88Zm27.84.06c0-2.48-.5-4.64-1.5-6.48-1-1.84-2.36-3.24-4.08-4.2-1.68-1-3.54-1.5-5.58-1.5s-3.9.48-5.58 1.44c-1.68.96-3.02 2.36-4.02 4.2-1 1.84-1.5 4-1.5 6.48 0 2.52.5 4.72 1.5 6.6 1 1.84 2.34 3.26 4.02 4.26 1.68.96 3.54 1.44 5.58 1.44s3.9-.48 5.58-1.44c1.72-1 3.08-2.42 4.08-4.26 1-1.88 1.5-4.06 1.5-6.54ZM239.392 48.763c4 0 7.24 1.22 9.72 3.66 2.48 2.4 3.72 5.88 3.72 10.44v19.38h-5.4v-18.6c0-3.28-.82-5.78-2.46-7.5-1.64-1.76-3.88-2.64-6.72-2.64-2.88 0-5.18.9-6.9 2.7-1.68 1.8-2.52 4.42-2.52 7.86v18.18h-5.46v-32.88h5.46v4.68c1.08-1.68 2.54-2.98 4.38-3.9 1.88-.92 3.94-1.38 6.18-1.38ZM259.711 65.683c0-3.36.68-6.3 2.04-8.82 1.36-2.56 3.22-4.54 5.58-5.94 2.4-1.4 5.08-2.1 8.04-2.1 2.56 0 4.94.6 7.14 1.8 2.2 1.16 3.88 2.7 5.04 4.62v-17.4h5.52v44.4h-5.52v-6.18c-1.08 1.96-2.68 3.58-4.8 4.86-2.12 1.24-4.6 1.86-7.44 1.86-2.92 0-5.58-.72-7.98-2.16-2.36-1.44-4.22-3.46-5.58-6.06-1.36-2.6-2.04-5.56-2.04-8.88Zm27.84.06c0-2.48-.5-4.64-1.5-6.48-1-1.84-2.36-3.24-4.08-4.2-1.68-1-3.54-1.5-5.58-1.5s-3.9.48-5.58 1.44c-1.68.96-3.02 2.36-4.02 4.2-1 1.84-1.5 4-1.5 6.48 0 2.52.5 4.72 1.5 6.6 1 1.84 2.34 3.26 4.02 4.26 1.68.96 3.54 1.44 5.58 1.44s3.9-.48 5.58-1.44c1.72-1 3.08-2.42 4.08-4.26 1-1.88 1.5-4.06 1.5-6.54ZM300.258 65.683c0-3.36.68-6.3 2.04-8.82 1.36-2.56 3.22-4.54 5.58-5.94 2.4-1.4 5.06-2.1 7.98-2.1 2.88 0 5.38.62 7.5 1.86 2.12 1.24 3.7 2.8 4.74 4.68v-6h5.52v32.88h-5.52v-6.12c-1.08 1.92-2.7 3.52-4.86 4.8-2.12 1.24-4.6 1.86-7.44 1.86-2.92 0-5.56-.72-7.92-2.16-2.36-1.44-4.22-3.46-5.58-6.06-1.36-2.6-2.04-5.56-2.04-8.88Zm27.84.06c0-2.48-.5-4.64-1.5-6.48-1-1.84-2.36-3.24-4.08-4.2-1.68-1-3.54-1.5-5.58-1.5s-3.9.48-5.58 1.44c-1.68.96-3.02 2.36-4.02 4.2-1 1.84-1.5 4-1.5 6.48 0 2.52.5 4.72 1.5 6.6 1 1.84 2.34 3.26 4.02 4.26 1.68.96 3.54 1.44 5.58 1.44s3.9-.48 5.58-1.44c1.72-1 3.08-2.42 4.08-4.26 1-1.88 1.5-4.06 1.5-6.54ZM348.305 54.703c.96-1.88 2.32-3.34 4.08-4.38 1.8-1.04 3.98-1.56 6.54-1.56v5.64h-1.44c-6.12 0-9.18 3.32-9.18 9.96v17.88h-5.46v-32.88h5.46v5.34ZM54.01 32.636l36.268 5.211-40.91 53.838-33.098-56.44 37.74-2.609Z" fill="#000"/><path fill-rule="evenodd" clip-rule="evenodd" d="M91.19 37.473 49.315 92.582 15.43 34.802l38.599-2.668 37.161 5.34ZM53.992 33.14l-36.883 2.55 32.313 55.099L89.365 38.22 53.992 33.14Z" fill="#000"/></svg>